<svg viewBox="0 0 512 512" xmlns="http://www.w3.org/2000/svg" xmlns:xlink="http://www.w3.org/1999/xlink"><linearGradient id="a" gradientUnits="userSpaceOnUse" x1="0" x2="512" y1="256" y2="256"><stop offset="0" stop-color="#00f2fe"/><stop offset=".0208" stop-color="#03effe"/><stop offset=".2931" stop-color="#24d2fe"/><stop offset=".5538" stop-color="#3cbdfe"/><stop offset=".7956" stop-color="#4ab0fe"/><stop offset="1" stop-color="#4facfe"/></linearGradient><path d="m492 327h-125v-142h125c11.046875 0 20-8.953125 20-20s-8.953125-20-20-20h-125v-125c0-11.046875-8.953125-20-20-20s-20 8.953125-20 20v125h-142v-125c0-11.046875-8.953125-20-20-20s-20 8.953125-20 20v125h-125c-11.046875 0-20 8.953125-20 20s8.953125 20 20 20h125v142h-125c-11.046875 0-20 8.953125-20 20s8.953125 20 20 20h125v125c0 11.046875 8.953125 20 20 20s20-8.953125 20-20v-125h142v125c0 11.046875 8.953125 20 20 20s20-8.953125 20-20v-125h125c11.046875 0 20-8.953125 20-20s-8.953125-20-20-20zm-307 0v-142h142v142zm-130-71c0 8.269531 6.730469 15 15 15 11.046875 0 20 8.953125 20 20s-8.953125 20-20 20c-30.328125 0-55-24.671875-55-55s24.671875-55 55-55 55 24.671875 55 55c0 11.046875-8.953125 20-20 20s-20-8.953125-20-20c0-8.269531-6.730469-15-15-15s-15 6.730469-15 15zm330-183c0-30.328125 24.671875-55 55-55s55 24.671875 55 55c0 11.046875-8.953125 20-20 20s-20-8.953125-20-20c0-8.269531-6.730469-15-15-15s-15 6.730469-15 15 6.730469 15 15 15c11.046875 0 20 8.953125 20 20s-8.953125 20-20 20c-30.328125 0-55-24.671875-55-55zm-73 183c0 11.046875-8.953125 20-20 20s-20-8.953125-20-20c0-8.269531-6.730469-15-15-15s-15 6.730469-15 15 6.730469 15 15 15c11.046875 0 20 8.953125 20 20s-8.953125 20-20 20c-30.328125 0-55-24.671875-55-55s24.671875-55 55-55 55 24.671875 55 55zm172.140625 168.144531-15.855469 15.855469 15.855469 15.855469c7.8125 7.8125 7.8125 20.476562 0 28.285156-3.902344 3.90625-9.023437 5.859375-14.140625 5.859375s-10.238281-1.953125-14.140625-5.855469l-15.859375-15.859375-15.859375 15.859375c-3.902344 3.902344-9.023437 5.855469-14.140625 5.855469s-10.238281-1.953125-14.140625-5.855469c-7.8125-7.8125-7.8125-20.476562 0-28.285156l15.855469-15.859375-15.855469-15.855469c-7.8125-7.8125-7.8125-20.476562 0-28.285156 7.808594-7.808594 20.472656-7.808594 28.28125 0l15.859375 15.855469 15.859375-15.859375c7.808594-7.808594 20.472656-7.808594 28.28125 0 7.8125 7.8125 7.8125 20.476562 0 28.289062zm-367 0-15.855469 15.855469 15.855469 15.855469c7.8125 7.8125 7.8125 20.476562 0 28.285156-3.902344 3.90625-9.023437 5.859375-14.140625 5.859375s-10.238281-1.953125-14.140625-5.855469l-15.859375-15.859375-15.859375 15.859375c-3.902344 3.902344-9.023437 5.855469-14.140625 5.855469s-10.238281-1.953125-14.140625-5.855469c-7.8125-7.8125-7.8125-20.476562 0-28.285156l15.855469-15.859375-15.855469-15.855469c-7.8125-7.8125-7.8125-20.476562 0-28.285156 7.808594-7.808594 20.472656-7.808594 28.28125 0l15.859375 15.855469 15.859375-15.859375c7.808594-7.808594 20.472656-7.808594 28.28125 0 7.8125 7.8125 7.8125 20.476562 0 28.289062zm-87.28125-335.289062 15.855469-15.855469-15.855469-15.855469c-7.8125-7.8125-7.8125-20.476562 0-28.285156 7.808594-7.808594 20.472656-7.808594 28.28125 0l15.859375 15.855469 15.859375-15.859375c7.808594-7.808594 20.472656-7.808594 28.28125 0 7.8125 7.8125 7.8125 20.476562 0 28.285156l-15.855469 15.859375 15.855469 15.855469c7.8125 7.8125 7.8125 20.476562 0 28.285156-3.902344 3.90625-9.023437 5.859375-14.140625 5.859375s-10.238281-1.953125-14.140625-5.855469l-15.859375-15.859375-15.859375 15.859375c-3.902344 3.902344-9.023437 5.855469-14.140625 5.855469s-10.238281-1.953125-14.140625-5.855469c-7.8125-7.8125-7.8125-20.476562 0-28.289062zm0 0" fill="url(#a)"/></svg>